PathFileType	4	(X/Y/Z)	/Users/itak/Documents/Research/Walk-IL/dataset/trc/00178_00008.trc
DataRate	CameraRate	NumFrames	NumMarkers	Units	OrigDataRate	OrigDataStartFrame	OrigNumFrames
100.000000	100.000000	4	53	mm	100.000000	211	846
Frame#	Time	RPSI			LPSI			L3			STRN			T10			C7			CLAV			RBAK			LBAK			LSHO			LUPA			LAEL			LAOL			LWTS			LWPS			LFRA			LIFD			LHPS			LHTS			RSHO			RUPA			RAEL			RAOL			RWTS			RWPS			RFRA			RIFD			RHTS			RHPS			RBHD			LFHD			RFHD			LBHD			LHIP			RHIP			RASI			LASI			LKNE			LTHI			LANK			LTIP			LTOE			LMT1			LMT5			LHEE			RKNE			RTHI			RANK			RTIP			RTOE			RMT1			RMT5			RHEE			
		X1	Y1	Z1	X2	Y2	Z2	X3	Y3	Z3	X4	Y4	Z4	X5	Y5	Z5	X6	Y6	Z6	X7	Y7	Z7	X8	Y8	Z8	X9	Y9	Z9	X10	Y10	Z10	X11	Y11	Z11	X12	Y12	Z12	X13	Y13	Z13	X14	Y14	Z14	X15	Y15	Z15	X16	Y16	Z16	X17	Y17	Z17	X18	Y18	Z18	X19	Y19	Z19	X20	Y20	Z20	X21	Y21	Z21	X22	Y22	Z22	X23	Y23	Z23	X24	Y24	Z24	X25	Y25	Z25	X26	Y26	Z26	X27	Y27	Z27	X28	Y28	Z28	X29	Y29	Z29	X30	Y30	Z30	X31	Y31	Z31	X32	Y32	Z32	X33	Y33	Z33	X34	Y34	Z34	X35	Y35	Z35	X36	Y36	Z36	X37	Y37	Z37	X38	Y38	Z38	X39	Y39	Z39	X40	Y40	Z40	X41	Y41	Z41	X42	Y42	Z42	X43	Y43	Z43	X44	Y44	Z44	X45	Y45	Z45	X46	Y46	Z46	X47	Y47	Z47	X48	Y48	Z48	X49	Y49	Z49	X50	Y50	Z50	X51	Y51	Z51	X52	Y52	Z52	X53	Y53	Z53	

212	2.11	899.3233642578125	1030.083618164062	910.2249755859375	805.254150390625	1024.419677734375	826.6358032226562	847.7322998046875	1063.161376953125	868.3638916015625	1029.03662109375	1271.419555664062	677.4956665039062	812.2903442382812	1225.460327148438	884.12451171875	854.888427734375	1492.224731445312	819.1844482421875	1003.279113769531	1386.002563476562	687.9119873046875	878.082275390625	1321.141235351562	950.0774536132812	779.463134765625	1468.35888671875	750.673583984375	782.3041381835938	1452.589721679688	641.0087280273438	712.5359497070312	1315.657104492188	613.6476440429688	722.5791625976562	1096.03759765625	604.0812377929688	740.53759765625	1086.18017578125	692.23486328125	817.375244140625	857.406494140625	570.1483764648438	729.060791015625	843.8180541992188	597.2186889648438	721.2825927734375	986.1926879882812	593.0596923828125	828.068603515625	674.316650390625	595.2594604492188	743.237548828125	773.077880859375	592.3778686523438	806.1622314453125	776.934814453125	555.5512084960938	1022.811767578125	1471.831665039062	908.7193603515625	1049.22802734375	1409.522094726562	976.9554443359375	1051.697509765625	1131.648071289062	1060.537109375	991.37255859375	1116.597412109375	984.8253173828125	1146.030395507812	890.481201171875	992.5646362304688	1108.559814453125	884.7662963867188	1073.429809570312	1080.221923828125	1058.740112304688	1068.624755859375	1132.782958984375	699.1005859375	990.18603515625	1164.279052734375	793.178466796875	996.615234375	1123.502319335938	799.6988525390625	1065.275024414062	978.5650024414062	1663.24462890625	807.3305053710938	948.9148559570312	1674.969116210938	591.6800537109375	1061.674926757812	1687.49609375	653.91259765625	856.1931762695312	1659.496459960938	744.5436401367188	781.0081176757812	956.6962890625	676.2318115234375	1096.948608398438	1001.851867675781	868.0031127929688	1103.552001953125	1028.032836914062	771.2617797851562	900.4983520507812	1000.990905761719	610.70263671875	815.1409301757812	457.6190490722656	713.1189575195312	807.3554077148438	603.1104125976562	685.117431640625	626.3252563476562	171.9848480224609	1053.050659179688	715.668212890625	307.9549865722656	868.72998046875	747.0028076171875	35.29045486450195	986.689208984375	758.3543701171875	59.59656143188477	1034.542236328125	642.1591186523438	76.09640502929688	993.6971435546875	659.1054077148438	227.2185211181641	1108.552978515625	1195.499267578125	529.8597412109375	722.1265869140625	1178.647338867188	793.0819091796875	788.7017822265625	1217.013305664062	29.50149345397949	754.4058227539062	1207.619995117188	407.3206481933594	688.1790771484375	1285.958129882812	56.55110931396484	546.0435791015625	1222.584838867188	49.85718154907227	570.8134765625	1298.54736328125	25.62321662902832	670.2977294921875	1132.386352539062	34.95134353637695	766.7534790039062	
213	2.12	908.9027709960938	1032.645263671875	902.765625	813.810546875	1026.287719726562	820.269775390625	856.6520385742188	1065.321533203125	861.384765625	1035.7919921875	1273.70166015625	668.1063232421875	821.490234375	1227.843505859375	877.3009643554688	863.4766845703125	1494.561157226562	811.682373046875	1010.189025878906	1388.295043945312	678.6986694335938	888.1160888671875	1323.645874023438	942.264892578125	787.189208984375	1470.797119140625	744.0123291015625	788.7975463867188	1455.188110351562	634.32763671875	718.102783203125	1318.636474609375	607.701416015625	726.2843017578125	1099.40625	599	745.294921875	1089.700927734375	686.9940185546875	814.4175415039062	858.1314086914062	565.4776000976562	726.0777587890625	847.5935668945312	593.8164672851562	722.3583374023438	989.922119140625	588.6906127929688	819.3402709960938	674.7044677734375	593.6156616210938	737.7957763671875	776.427490234375	589.7327270507812	800.5499877929688	777.4800415039062	552.1840209960938	1032.29541015625	1474.4287109375	899.0311279296875	1059.546142578125	1412.276611328125	967.0980224609375	1063.074096679688	1134.622924804688	1051.400146484375	1001.127136230469	1119.605102539062	976.5152587890625	1156.06982421875	893.2891235351562	981.8530883789062	1119.987426757812	887.5599365234375	1063.328979492188	1091.756103515625	1061.632080078125	1059.05517578125	1142.57080078125	701.9317626953125	979.4354248046875	1174.279296875	795.988525390625	985.4584350585938	1134.734985351562	802.4751586914062	1054.850708007812	986.8702392578125	1665.260498046875	798.7350463867188	954.9862670898438	1677.606689453125	583.4132080078125	1068.41162109375	1689.834350585938	644.5101928710938	863.9253540039062	1661.759399414062	737.144287109375	787.4236450195312	958.208740234375	669.9859008789062	1105.8759765625	1003.970581054688	858.6106567382812	1111.656616210938	1030.225952148438	761.8040161132812	906.7182006835938	1003.096069335938	603.5008544921875	826.4487915039062	457.9801635742188	696.3641357421875	816.91357421875	603.8790893554688	672.143798828125	639.40576171875	183.0436553955078	1044.148193359375	727.8587036132812	312.2618408203125	855.43994140625	751.9650268554688	34.62528991699219	977.4114379882812	765.729248046875	64.21415710449219	1023.94921875	649.8775024414062	84.98017120361328	986.9708862304688	675.5615844726562	237.7353210449219	1097.6318359375	1200.543212890625	529.7427368164062	716.6103515625	1186.467163085938	793.7842407226562	781.0342407226562	1216.9326171875	29.80994606018066	754.1107788085938	1211.55859375	406.720703125	683.846435546875	1285.932006835938	54.79526519775391	545.2138671875	1222.612426757812	48.93968963623047	570.3650512695312	1298.689331054688	25.68143272399902	670.4254150390625	1132.383911132812	35.09090423583984	766.5485229492188	
214	2.13	918.3544921875	1034.865844726562	895.3740844726562	822.2078857421875	1028.046997070312	814.2484741210938	865.47705078125	1067.34423828125	854.6702270507812	1042.143188476562	1275.708984375	658.7227783203125	830.6259155273438	1230.238647460938	870.6946411132812	871.953857421875	1496.862548828125	804.1921997070312	1016.798156738281	1390.33056640625	669.4343872070312	898.1264038085938	1326.177856445312	934.5807495117188	794.7588500976562	1473.167114257812	737.4766845703125	795.012939453125	1457.637084960938	627.784423828125	723.3447265625	1321.494262695312	601.9949951171875	729.6131591796875	1102.654296875	593.914794921875	749.5075073242188	1093.033325195312	681.7214965820312	811.6624145507812	859.15234375	560.7509155273438	723.3941650390625	851.3761596679688	590.1547241210938	723.3031005859375	993.5338134765625	584.2381591796875	811.4732666015625	675.6617431640625	591.5631103515625	732.8668212890625	779.9080810546875	586.6923828125	795.4066162109375	778.4614868164062	548.5614013671875	1041.761596679688	1476.92822265625	889.1694946289062	1069.9140625	1414.944458007812	957.0743408203125	1074.632446289062	1137.528198242188	1042.222900390625	1010.96044921875	1122.499389648438	968.3152465820312	1166.244506835938	896.1199951171875	970.8353271484375	1131.684692382812	890.2755737304688	1052.946411132812	1103.470336914062	1064.436157226562	1049.380493164062	1152.71923828125	704.8028564453125	968.2103881835938	1184.521850585938	798.8637084960938	973.8853149414062	1146.302856445312	805.1910400390625	1044.047119140625	994.966796875	1667.147827148438	790.0740356445312	960.8866577148438	1680.111206054688	575.088134765625	1074.955810546875	1692.027954101562	635.0657958984375	871.4445190429688	1663.901000976562	729.6670532226562	793.5858154296875	959.7319946289062	664.00732421875	1114.651245117188	1005.832214355469	849.1847534179688	1119.486083984375	1032.112060546875	752.2981567382812	912.5081176757812	1005.133911132812	596.3927001953125	837.7461547851562	458.5995788574219	679.4234008789062	826.3801879882812	604.824951171875	659.1354370117188	653.4041748046875	193.5032806396484	1034.380249023438	740.6022338867188	316.4281616210938	841.6978759765625	757.9578857421875	34.62649536132812	965.8443603515625	774.176025390625	69.01915740966797	1011.266418457031	658.8624267578125	94.2110595703125	978.4942626953125	692.8350219726562	247.0541229248047	1086.360595703125	1205.210693359375	529.4826049804688	711.2964477539062	1193.843017578125	794.2271118164062	773.3941650390625	1216.8291015625	30.10922431945801	753.7919311523438	1215.171997070312	406.0571899414062	679.7321166992188	1285.926635742188	53.15926742553711	544.3759765625	1222.642456054688	48.1654167175293	569.8988037109375	1298.763305664062	25.76076507568359	670.4920043945312	1132.32275390625	35.23245239257812	766.2942504882812	
215	2.14	927.648193359375	1036.767578125	888.0186157226562	830.4505004882812	1029.713623046875	808.4805297851562	874.2262573242188	1069.242919921875	848.1519165039062	1048.106201171875	1277.453979492188	649.3492431640625	839.7135620117188	1232.642944335938	864.2822265625	880.3175659179688	1499.115966796875	796.7335205078125	1023.100830078125	1392.123046875	660.1348266601562	908.1190185546875	1328.711303710938	927.0250854492188	802.169677734375	1475.447387695312	731.093505859375	800.94873046875	1459.916015625	621.4058837890625	728.253662109375	1324.206909179688	596.5831909179688	732.5321655273438	1105.743896484375	588.8853759765625	753.1782836914062	1096.147705078125	676.4673461914062	809.1515502929688	860.40966796875	555.9447631835938	721.0372314453125	855.0601806640625	586.2651977539062	724.0985717773438	996.968994140625	579.7352294921875	804.5771484375	677.072509765625	589.0121459960938	728.5089721679688	783.3914794921875	583.2582397460938	790.8018798828125	779.792724609375	544.6522216796875	1051.200927734375	1479.309326171875	879.1572265625	1080.323120117188	1417.509399414062	946.89794921875	1086.363647460938	1140.337646484375	1032.980346679688	1020.923950195312	1125.261962890625	960.1915283203125	1176.541259765625	898.9418334960938	959.5388793945312	1143.624877929688	892.8958129882812	1042.291748046875	1115.3427734375	1067.130249023438	1039.587890625	1163.197875976562	707.6807861328125	956.5513916015625	1194.982421875	801.7708129882812	961.9381713867188	1158.164428710938	807.8239135742188	1032.886108398438	1002.853210449219	1668.921020507812	781.3438110351562	966.6050415039062	1682.458740234375	566.7002563476562	1081.297241210938	1694.068725585938	625.5675048828125	878.7516479492188	1665.927978515625	722.1219482421875	799.5869140625	961.305908203125	658.1981201171875	1123.251098632812	1007.481872558594	839.7064208984375	1127.035034179688	1033.731567382812	742.727783203125	917.907470703125	1007.105712890625	589.3320922851562	848.90966796875	459.5321350097656	662.3737182617188	835.6932373046875	605.999267578125	646.1023559570312	668.259521484375	202.9658966064453	1023.768249511719	753.7754516601562	320.3904724121094	827.5753784179688	765.0625	35.46865081787109	952.0319213867188	783.746826171875	73.71821594238281	996.6054077148438	669.1017456054688	103.3057479858398	968.2479858398438	710.8233032226562	254.8972778320312	1074.751953125	1209.539306640625	529.1133422851562	706.1259155273438	1200.7490234375	794.5184326171875	765.6436767578125	1216.719970703125	30.38632392883301	753.4633178710938	1218.464477539062	405.3408508300781	675.7789916992188	1285.955322265625	51.60234069824219	543.5400390625	1222.686645507812	47.50357437133789	569.4086303710938	1298.798217773438	25.83526802062988	670.5117797851562	1132.217651367188	35.38698577880859	765.9954223632812	
